<?xml version="1.0" encoding="UTF-8" standalone="no"?>
<!DOCTYPE svg PUBLIC "-//W3C//DTD SVG 1.1//EN" "http://www.w3.org/Graphics/SVG/1.1/DTD/svg11.dtd">
<svg width="100%" height="100%" viewBox="0 0 58 58" version="1.1" xmlns="http://www.w3.org/2000/svg" xmlns:xlink="http://www.w3.org/1999/xlink" xml:space="preserve" xmlns:serif="http://www.serif.com/" style="fill-rule:evenodd;clip-rule:evenodd;stroke-linejoin:round;stroke-miterlimit:1.41421;">
    <g>
        <path d="M44,28C43.448,28 43,28.447 43,29L43,35C43,42.72 36.72,49 29,49C21.28,49 15,42.72 15,35L15,29C15,28.447 14.552,28 14,28C13.448,28 13,28.447 13,29L13,35C13,43.485 19.644,50.429 28,50.949L28,56L23,56C22.448,56 22,56.447 22,57C22,57.553 22.448,58 23,58L35,58C35.552,58 36,57.553 36,57C36,56.447 35.552,56 35,56L30,56L30,50.949C38.356,50.429 45,43.484 45,35L45,29C45,28.447 44.552,28 44,28Z" style="fill:rgb(112,173,71);fill-rule:nonzero;"/>
        <path d="M29,46C35.065,46 40,41.065 40,35L40,11C40,4.935 35.065,0 29,0C22.935,0 18,4.935 18,11L18,35C18,41.065 22.935,46 29,46Z" style="fill:rgb(112,173,71);fill-rule:nonzero;"/>
    </g>
</svg>
