<?xml version="1.0" encoding="UTF-8" standalone="no"?>
<!DOCTYPE svg PUBLIC "-//W3C//DTD SVG 1.1//EN" "http://www.w3.org/Graphics/SVG/1.1/DTD/svg11.dtd">
<svg width="100%" height="100%" viewBox="0 0 58 58" version="1.1" xmlns="http://www.w3.org/2000/svg" xmlns:xlink="http://www.w3.org/1999/xlink" xml:space="preserve" xmlns:serif="http://www.serif.com/" style="fill-rule:evenodd;clip-rule:evenodd;stroke-linejoin:round;stroke-miterlimit:1.41421;">
    <g>
        <path d="M29.5,46C35.565,46 40.5,41.065 40.5,35L40.5,20.414L20.149,40.765C22.09,43.9 25.55,46 29.5,46Z" style="fill:rgb(174,174,174);fill-rule:nonzero;"/>
        <path d="M40.5,11C40.5,4.935 35.565,0 29.5,0C23.435,0 18.5,4.935 18.5,11L18.5,33.586L40.5,11.586L40.5,11Z" style="fill:rgb(174,174,174);fill-rule:nonzero;"/>
        <path d="M52.207,4.293C51.816,3.902 51.184,3.902 50.793,4.293L16.089,38.997C15.71,37.729 15.5,36.389 15.5,35L15.5,29C15.5,28.447 15.052,28 14.5,28C13.948,28 13.5,28.447 13.5,29L13.5,35C13.5,36.96 13.871,38.83 14.519,40.567L5.793,49.293C5.402,49.684 5.402,50.316 5.793,50.707C5.988,50.902 6.244,51 6.5,51C6.756,51 7.012,50.902 7.207,50.707L15.388,42.526C17.936,47.285 22.822,50.596 28.5,50.95L28.5,56L23.5,56C22.948,56 22.5,56.447 22.5,57C22.5,57.553 22.948,58 23.5,58L35.5,58C36.052,58 36.5,57.553 36.5,57C36.5,56.447 36.052,56 35.5,56L30.5,56L30.5,50.949C38.856,50.429 45.5,43.484 45.5,35L45.5,29C45.5,28.447 45.052,28 44.5,28C43.948,28 43.5,28.447 43.5,29L43.5,35C43.5,42.72 37.22,49 29.5,49C23.941,49 19.143,45.735 16.884,41.03L52.207,5.707C52.598,5.316 52.598,4.684 52.207,4.293Z" style="fill:rgb(174,174,174);fill-rule:nonzero;"/>
    </g>
</svg>
